<!DOCTYPE svg PUBLIC "-//W3C//DTD SVG 1.1//EN" "http://www.w3.org/Graphics/SVG/1.1/DTD/svg11.dtd">
<!-- Uploaded to: SVG Repo, www.svgrepo.com, Transformed by: SVG Repo Mixer Tools -->
<svg width="95px" height="95px" viewBox="-6.4 -6.4 76.80 76.80" xmlns="http://www.w3.org/2000/svg" xmlns:xlink="http://www.w3.org/1999/xlink" aria-hidden="true" role="img" class="iconify iconify--emojione-monotone" preserveAspectRatio="xMidYMid meet" fill="#fafafa" transform="matrix(1, 0, 0, 1, 0, 0)rotate(0)" stroke="#fafafa" stroke-width="0.00064">
<g id="SVGRepo_bgCarrier" stroke-width="0" transform="translate(0,0), scale(1)">
<rect x="-6.4" y="-6.4" width="76.80" height="76.80" rx="0" fill="#a90aff" strokewidth="0"/>
</g>
<g id="SVGRepo_tracerCarrier" stroke-linecap="round" stroke-linejoin="round" stroke="#CCCCCC" stroke-width="0.512"/>
<g id="SVGRepo_iconCarrier">
<path d="M32.202 22.531h-5.6v18.938h5.6c2.865 0 4.862-1.41 5.993-4.232c.617-1.549.927-3.393.927-5.531c0-2.953-.464-5.221-1.39-6.801c-.927-1.583-2.77-2.374-5.53-2.374" fill="#000000"/>
<path d="M32 2C15.432 2 2 15.432 2 32s13.432 30 30 30s30-13.432 30-30S48.568 2 32 2m10.959 39.094c-2.102 3.609-5.346 5.414-9.732 5.414H20.716V17.492h12.511c1.799.025 3.297.236 4.492.629c2.035.67 3.684 1.896 4.944 3.682c1.012 1.443 1.7 3.006 2.068 4.686s.552 3.281.552 4.803c0 3.858-.774 7.126-2.324 9.802" fill="#000000"/>
</g>
</svg>